<svg id="eA4XWSaxbmQ1" xmlns="http://www.w3.org/2000/svg" xmlns:xlink="http://www.w3.org/1999/xlink" viewBox="0 0 300 300" shape-rendering="geometricPrecision" text-rendering="geometricPrecision"><ellipse rx="47.098976" ry="71.672355" transform="translate(137.201365 148.153691)" fill="#548cfa" stroke-width="0"/><ellipse rx="20.733789" ry="1.791809" transform="matrix(1 0 0 0.33089 137.201365 87.112678)" fill="#d2dbed" stroke-width="0"/><ellipse rx="20.733789" ry="1.791809" transform="matrix(.498202 0 0 0.33089 137.201365 81.365802)" fill="#d2dbed" stroke-width="0"/><ellipse rx="20.733789" ry="1.791809" transform="matrix(1.283069 0 0 0.33089 137.201365 92.669314)" fill="#d2dbed" stroke-width="0"/><ellipse rx="20.733789" ry="1.791809" transform="matrix(1.525133 0 0 0.33089 137.201365 98.405196)" fill="#d2dbed" stroke-width="0"/><ellipse rx="20.733789" ry="1.791809" transform="matrix(1.750069 0 0 0.33089 137.201365 104.294718)" fill="#d2dbed" stroke-width="0"/><ellipse rx="20.733789" ry="1.791809" transform="matrix(1.8 0 0 0.330885 137.201365 110.052418)" fill="#d2dbed" stroke-width="0"/><ellipse rx="20.733789" ry="1.791809" transform="matrix(1.89683 0 0 0.330885 136.166106 115.358583)" fill="#d2dbed" stroke-width="0"/><ellipse rx="20.733789" ry="1.791809" transform="matrix(2.059147 0 0 0.330885 136.166106 121.080314)" fill="#d2dbed" stroke-width="0"/><ellipse rx="20.733789" ry="1.791809" transform="matrix(2.059147 0 0 0.330885 136.166106 141.20021)" fill="#d2dbed" stroke-width="0"/><ellipse rx="20.733789" ry="1.791809" transform="matrix(2.059147 0 0 0.330885 136.166106 160.754127)" fill="#d2dbed" stroke-width="0"/><ellipse rx="20.733789" ry="1.791809" transform="matrix(2.059147 0 0 0.330885 136.166106 168.300492)" fill="#d2dbed" stroke-width="0"/><ellipse rx="20.733789" ry="1.791809" transform="matrix(1.89683 0 0 0.330885 136.166106 174.258145)" fill="#d2dbed" stroke-width="0"/><ellipse rx="20.733789" ry="1.791809" transform="matrix(1.750069 0 0 0.330885 136.166106 180.471548)" fill="#d2dbed" stroke-width="0"/><ellipse rx="20.733789" ry="1.791809" transform="matrix(1.475202 0 0 0.330885 136.166106 186.852881)" fill="#d2dbed" stroke-width="0"/><ellipse rx="20.733789" ry="1.791809" transform="matrix(1.233138 0 0 0.330885 136.166106 193.738004)" fill="#d2dbed" stroke-width="0"/><ellipse rx="20.733789" ry="1.791809" transform="matrix(.95007 0 0 0.330885 136.166106 199.783478)" fill="#d2dbed" stroke-width="0"/><ellipse rx="20.733789" ry="1.791809" transform="matrix(.448272 0 0 0.330885 136.166127 213.937563)" fill="#d2dbed" stroke-width="0"/><ellipse rx="20.733789" ry="1.791809" transform="matrix(.667214 0 0 0.330885 136.166106 208.659769)" fill="#d2dbed" stroke-width="0"/><ellipse rx="20.733789" ry="1.791809" transform="matrix(2.059147 0 0 0.330885 136.166106 148.746574)" fill="#d2dbed" stroke-width="0"/><ellipse rx="20.733789" ry="1.791809" transform="matrix(2.059147 0 0 0.330885 136.166106 154.704227)" fill="#d2dbed" stroke-width="0"/><ellipse rx="20.733789" ry="1.791809" transform="matrix(2.059147 0 0 0.330885 136.166106 128.626676)" fill="#d2dbed" stroke-width="0"/><ellipse rx="20.733789" ry="1.791809" transform="matrix(2.059147 0 0 0.330885 136.166106 134.584331)" fill="#d2dbed" stroke-width="0"/></svg>
