<svg id="e57nplZutsW1" xmlns="http://www.w3.org/2000/svg" xmlns:xlink="http://www.w3.org/1999/xlink" viewBox="0 0 300 300" shape-rendering="geometricPrecision" text-rendering="geometricPrecision" width="300" height="300"><ellipse rx="47.099" ry="71.6724" transform="translate(93.201 148.154)" fill="#548cfa" stroke-width="0"/><ellipse rx="47.099" ry="71.6724" transform="translate(193.087918 145.858483)" fill="#548cfa" stroke-width="0"/><ellipse rx="20.7338" ry="1.79181" transform="matrix(1 0 0 0.33089 193.087918 84.817183)" fill="#d2dbed" stroke-width="0"/><ellipse rx="20.7338" ry="1.79181" transform="matrix(.498202 0 0 0.33089 193.087918 79.070283)" fill="#d2dbed" stroke-width="0"/><ellipse rx="20.7338" ry="1.79181" transform="matrix(1.28307 0 0 0.33089 193.087918 90.373783)" fill="#d2dbed" stroke-width="0"/><ellipse rx="20.7338" ry="1.79181" transform="matrix(1.52513 0 0 0.33089 193.087918 96.109683)" fill="#d2dbed" stroke-width="0"/><ellipse rx="20.7338" ry="1.79181" transform="matrix(1.75007 0 0 0.33089 193.087918 101.999483)" fill="#d2dbed" stroke-width="0"/><ellipse rx="20.7338" ry="1.79181" transform="matrix(1.8 0 0 0.330885 193.087918 107.756483)" fill="#d2dbed" stroke-width="0"/><ellipse rx="20.7338" ry="1.79181" transform="matrix(1.89683 0 0 0.330885 192.052918 113.063483)" fill="#d2dbed" stroke-width="0"/><ellipse rx="20.7338" ry="1.79181" transform="matrix(2.05915 0 0 0.330885 192.052918 118.784483)" fill="#d2dbed" stroke-width="0"/><ellipse rx="20.7338" ry="1.79181" transform="matrix(2.05915 0 0 0.330885 192.052918 138.904483)" fill="#d2dbed" stroke-width="0"/><ellipse rx="20.7338" ry="1.79181" transform="matrix(2.05915 0 0 0.330885 192.052918 158.458483)" fill="#d2dbed" stroke-width="0"/><ellipse rx="20.7338" ry="1.79181" transform="matrix(2.05915 0 0 0.330885 192.052918 166.004483)" fill="#d2dbed" stroke-width="0"/><ellipse rx="20.7338" ry="1.79181" transform="matrix(1.89683 0 0 0.330885 192.052918 171.962483)" fill="#d2dbed" stroke-width="0"/><ellipse rx="20.7338" ry="1.79181" transform="matrix(1.75007 0 0 0.330885 192.052918 178.176483)" fill="#d2dbed" stroke-width="0"/><ellipse rx="20.7338" ry="1.79181" transform="matrix(1.4752 0 0 0.330885 192.052918 184.557483)" fill="#d2dbed" stroke-width="0"/><ellipse rx="20.7338" ry="1.79181" transform="matrix(1.23314 0 0 0.330885 192.052918 191.442483)" fill="#d2dbed" stroke-width="0"/><ellipse rx="20.7338" ry="1.79181" transform="matrix(.95007 0 0 0.330885 192.052918 197.487483)" fill="#d2dbed" stroke-width="0"/><ellipse rx="20.7338" ry="1.79181" transform="matrix(.448272 0 0 0.330885 192.052918 211.642483)" fill="#d2dbed" stroke-width="0"/><ellipse rx="20.7338" ry="1.79181" transform="matrix(.667214 0 0 0.330885 192.052918 206.364483)" fill="#d2dbed" stroke-width="0"/><ellipse rx="20.7338" ry="1.79181" transform="matrix(2.05915 0 0 0.330885 192.052918 146.451483)" fill="#d2dbed" stroke-width="0"/><ellipse rx="20.7338" ry="1.79181" transform="matrix(2.05915 0 0 0.330885 192.052918 152.408483)" fill="#d2dbed" stroke-width="0"/><ellipse rx="20.7338" ry="1.79181" transform="matrix(2.05915 0 0 0.330885 192.052918 126.331483)" fill="#d2dbed" stroke-width="0"/><ellipse rx="20.7338" ry="1.79181" transform="matrix(2.05915 0 0 0.330885 192.052918 132.288483)" fill="#d2dbed" stroke-width="0"/><ellipse rx="20.7338" ry="1.79181" transform="matrix(1 0 0 0.33089 93.201 87.1127)" fill="#d2dbed" stroke-width="0"/><ellipse rx="20.7338" ry="1.79181" transform="matrix(.498202 0 0 0.33089 93.201 81.3658)" fill="#d2dbed" stroke-width="0"/><ellipse rx="20.7338" ry="1.79181" transform="matrix(1.28307 0 0 0.33089 93.201 92.6693)" fill="#d2dbed" stroke-width="0"/><ellipse rx="20.7338" ry="1.79181" transform="matrix(1.52513 0 0 0.33089 93.201 98.4052)" fill="#d2dbed" stroke-width="0"/><ellipse rx="20.7338" ry="1.79181" transform="matrix(1.75007 0 0 0.33089 93.201 104.295)" fill="#d2dbed" stroke-width="0"/><ellipse rx="20.7338" ry="1.79181" transform="matrix(1.8 0 0 0.330885 93.201 110.052)" fill="#d2dbed" stroke-width="0"/><ellipse rx="20.7338" ry="1.79181" transform="matrix(1.89683 0 0 0.330885 92.166 115.359)" fill="#d2dbed" stroke-width="0"/><ellipse rx="20.7338" ry="1.79181" transform="matrix(2.05915 0 0 0.330885 92.166 121.08)" fill="#d2dbed" stroke-width="0"/><ellipse rx="20.7338" ry="1.79181" transform="matrix(2.05915 0 0 0.330885 92.166 141.2)" fill="#d2dbed" stroke-width="0"/><ellipse rx="20.7338" ry="1.79181" transform="matrix(2.05915 0 0 0.330885 92.166 160.754)" fill="#d2dbed" stroke-width="0"/><ellipse rx="20.7338" ry="1.79181" transform="matrix(2.05915 0 0 0.330885 92.166 168.3)" fill="#d2dbed" stroke-width="0"/><ellipse rx="20.7338" ry="1.79181" transform="matrix(1.89683 0 0 0.330885 92.166 174.258)" fill="#d2dbed" stroke-width="0"/><ellipse rx="20.7338" ry="1.79181" transform="matrix(1.75007 0 0 0.330885 92.166 180.472)" fill="#d2dbed" stroke-width="0"/><ellipse rx="20.7338" ry="1.79181" transform="matrix(1.4752 0 0 0.330885 92.166 186.853)" fill="#d2dbed" stroke-width="0"/><ellipse rx="20.7338" ry="1.79181" transform="matrix(1.23314 0 0 0.330885 92.166 193.738)" fill="#d2dbed" stroke-width="0"/><ellipse rx="20.7338" ry="1.79181" transform="matrix(.95007 0 0 0.330885 92.166 199.783)" fill="#d2dbed" stroke-width="0"/><ellipse rx="20.7338" ry="1.79181" transform="matrix(.448272 0 0 0.330885 92.166 213.938)" fill="#d2dbed" stroke-width="0"/><ellipse rx="20.7338" ry="1.79181" transform="matrix(.667214 0 0 0.330885 92.166 208.66)" fill="#d2dbed" stroke-width="0"/><ellipse rx="20.7338" ry="1.79181" transform="matrix(2.05915 0 0 0.330885 92.166 148.747)" fill="#d2dbed" stroke-width="0"/><ellipse rx="20.7338" ry="1.79181" transform="matrix(2.05915 0 0 0.330885 92.166 154.704)" fill="#d2dbed" stroke-width="0"/><ellipse rx="20.7338" ry="1.79181" transform="matrix(2.05915 0 0 0.330885 92.166 128.627)" fill="#d2dbed" stroke-width="0"/><ellipse rx="20.7338" ry="1.79181" transform="matrix(2.05915 0 0 0.330885 92.166 134.584)" fill="#d2dbed" stroke-width="0"/></svg>
